<?xml version="1.0" encoding="utf-8"?>
<!-- Generator: Adobe Illustrator 17.0.0, SVG Export Plug-In . SVG Version: 6.00 Build 0)  -->
<!DOCTYPE svg PUBLIC "-//W3C//DTD SVG 1.1//EN" "http://www.w3.org/Graphics/SVG/1.1/DTD/svg11.dtd">
<svg version="1.1" id="Layer_1" xmlns="http://www.w3.org/2000/svg" xmlns:xlink="http://www.w3.org/1999/xlink" x="0px" y="0px"
	 width="230.979px" height="152.024px" viewBox="-9.525 -12.146 230.979 152.024"
	 enable-background="new -9.525 -12.146 230.979 152.024" xml:space="preserve">
<path fill="#3BAFE4" d="M12.233,79.125l-0.049-2c0.307-0.007,30.832-0.864,44.039-11.042c13.314-10.26,16.112-13.123,16.139-13.15
	l1.148-1.191l0.522,1.57c0.329,0.991,8.347,24.292,33.248,22.94c9.464-0.5,15.933-3.041,19.228-7.552
	c3.296-4.512,2.762-10.142,1.732-14.071c-1.296-4.951-10.177-14.603-10.267-14.7l-0.849-0.918l1.083-0.626
	c0.143-0.083,14.437-8.141,25.231,3.434c3.062,3.284,5.842,7.181,8.53,10.95c6.523,9.145,13.269,18.6,24.939,21.003
	c16.353,3.368,32.91-8.823,33.075-8.946l1.197,1.602c-0.703,0.526-17.431,12.852-34.675,9.304
	c-12.441-2.562-19.418-12.342-26.165-21.8c-2.773-3.888-5.393-7.56-8.365-10.747c-8.144-8.733-18.293-5.175-21.65-3.63
	c2.365,2.667,8.674,10.082,9.85,14.57c1.633,6.235,0.923,11.684-2.053,15.757c-3.667,5.021-10.644,7.836-20.737,8.37
	c-22.776,1.2-32.41-17.51-34.695-22.889c-1.747,1.566-5.941,5.135-15.248,12.307C43.718,78.245,13.512,79.094,12.233,79.125z"/>
<path fill="#0F62AF" d="M12.983,75.75l-0.049-2c0.307-0.007,30.832-0.864,44.039-11.042c13.314-10.26,16.112-13.123,16.139-13.15
	l1.148-1.191l0.522,1.57c0.329,0.991,8.347,24.292,33.248,22.94c9.464-0.5,15.933-3.041,19.228-7.552
	c3.296-4.512,2.762-10.142,1.732-14.071c-1.296-4.951-10.177-14.603-10.267-14.7l-0.849-0.918l1.083-0.626
	c0.143-0.083,14.437-8.141,25.231,3.434c3.062,3.284,5.842,7.181,8.53,10.95c6.523,9.145,13.269,18.6,24.939,21.003
	c16.353,3.368,32.91-8.823,33.075-8.946l1.197,1.602c-0.703,0.526-17.431,12.852-34.675,9.304
	c-12.441-2.562-19.418-12.342-26.165-21.8c-2.773-3.888-5.393-7.56-8.365-10.747c-8.144-8.733-18.293-5.175-21.65-3.63
	c2.365,2.667,8.674,10.082,9.85,14.57c1.633,6.235,0.923,11.684-2.053,15.757c-3.667,5.021-10.644,7.836-20.737,8.37
	c-22.776,1.2-32.41-17.51-34.695-22.889c-1.747,1.566-5.941,5.135-15.248,12.307C44.468,74.87,14.262,75.719,12.983,75.75z"/>
<path fill="#231F20" d="M107,25c-6.583-4.833-23.667-0.833-23.667-0.833s3.917-4.333,5.583-6c1.667-1.667,6.417-2.417,6.417-2.417
	s-1.25-6.583-12.5-10.583S66.25,5,66.25,5s1.833,1.417,4.25,4.417s2,11.25,2,11.25S59.333,0,45.083,0s-25.75,14.083-25.75,14.083
	s4.862-0.966,10.886-1.569c0.108-1.048,0.404-2.228,1.197-2.181c0.725,0.043,1.034,1.023,1.164,1.971
	c0.329-0.026,0.66-0.049,0.992-0.072c0.753-1.23,1.928-2.515,3.344-1.901c0.88,0.382,1.29,1.033,1.459,1.715
	c3.126-0.019,6.149,0.189,8.625,0.786c9.667,2.333,15.25,13.417,15.25,13.417s-21.667-8.5-40.583-2.75C2.75,29.25,0,53.667,0,53.667
	s7.699-6.169,20.185-10.93c-1.02-1.349-2.018-2.653-2.018-2.653l3.377,2.149c2.776-1.007,5.774-1.932,8.959-2.704l-3.253-5.111
	l5.681,4.556c0.967-0.209,1.925-0.405,2.873-0.587L36,34.417l2.702,3.442c2.412-0.409,4.737-0.735,6.952-0.997l1.096-1.528
	l0.442,1.355c0.875-0.094,1.733-0.179,2.565-0.253L49.5,35.333l0.918,1.046C60.167,35.557,66.75,36,66.75,36s-22.5,22-31.833,40.333
	S22.25,124.984,22.25,124.984h15.917c0,0,1.667-31.734,7.917-49.484s25.25-38.083,25.25-38.083S81.417,41.083,87.917,47
	c2.529,2.302,5.852,7.167,8.97,12.25c2.297,0,4.613,0,4.613,0l-3.71,1.488c4.517,7.515,8.376,15.012,8.376,15.012
	s0.417-15.75-3-26.25C99.75,39,85.917,32.833,85.917,32.833s2.392,0.043,5.954,0.653c2.036-0.397,5.307-0.925,5.713-0.403
	c0.238,0.306,0.281,1.03,0.249,1.779c1.435,0.421,2.931,0.94,4.445,1.553c1.398-0.057,2.698,0.076,3.223,0.668
	c0.282,0.318,0.483,0.71,0.63,1.128c1.155,0.627,2.289,1.327,3.389,2.072c1.696-0.682,3.553-1.099,4.064,0.05
	c0.39,0.877,0.157,1.879-0.27,2.777c0.815,0.661,1.595,1.326,2.331,1.979c1.22-0.055,2.293,0.055,2.522,0.577
	c0.176,0.403,0.383,1.294,0.585,2.339C121.076,50.309,122.5,52,122.5,52S113.583,29.833,107,25z M34.282,111.75
	c-1.887-0.063-3.387-3.063-3.387-3.063l6.773,0.375C37.669,109.063,36.169,111.813,34.282,111.75z M36.427,99.188
	c-1.469,0-2.844-2.563-2.844-2.563h5.688C39.271,96.625,37.896,99.188,36.427,99.188z M39.771,84.25
	c-2.563-1-2.063-2.688-2.063-2.688l5.124,2.688C42.832,84.25,42.333,85.25,39.771,84.25z M41.896,75c-1.625-0.5-1.5-3.438-1.5-3.438
	l4.875,2.688C45.271,74.25,43.521,75.5,41.896,75z M48.771,61.438c-1.438-0.5-0.75-2.063-0.75-2.063l3.563,2.063
	C51.583,61.438,50.208,61.938,48.771,61.438z M57.833,49.875c-0.688-0.125-0.625-1.313-0.625-1.313l2.313,1
	C59.521,49.563,58.521,50,57.833,49.875z"/>
<g>
	<path d="M60.384,84.77v-0.378h4.896v0.378h-0.52c-0.544,0-0.963,0.228-1.255,0.683c-0.143,0.211-0.214,0.701-0.214,1.47v5.61
		c0,1.388-0.138,2.464-0.413,3.229c-0.275,0.766-0.816,1.422-1.622,1.969c-0.806,0.548-1.902,0.821-3.29,0.821
		c-1.51,0-2.656-0.262-3.438-0.785s-1.336-1.228-1.663-2.111c-0.218-0.605-0.326-1.741-0.326-3.407V86.84
		c0-0.85-0.118-1.407-0.352-1.673c-0.235-0.266-0.614-0.397-1.138-0.397h-0.52v-0.378h5.978v0.378h-0.531
		c-0.571,0-0.979,0.18-1.224,0.54c-0.17,0.245-0.255,0.755-0.255,1.53v6.029c0,0.537,0.049,1.152,0.148,1.847
		c0.099,0.693,0.277,1.234,0.536,1.621c0.258,0.388,0.63,0.708,1.117,0.959c0.486,0.252,1.083,0.378,1.791,0.378
		c0.904,0,1.714-0.197,2.428-0.592c0.714-0.395,1.202-0.899,1.464-1.515s0.393-1.658,0.393-3.127v-5.6
		c0-0.863-0.095-1.404-0.286-1.622c-0.265-0.299-0.66-0.448-1.184-0.448H60.384z"/>
	<path d="M68.882,90.584c1.095-1.319,2.139-1.979,3.132-1.979c0.51,0,0.949,0.128,1.316,0.383c0.368,0.255,0.66,0.675,0.877,1.26
		c0.149,0.408,0.225,1.034,0.225,1.877v3.989c0,0.592,0.047,0.993,0.143,1.203c0.075,0.17,0.195,0.303,0.362,0.398
		s0.474,0.143,0.923,0.143v0.367h-4.622v-0.367h0.194c0.436,0,0.74-0.066,0.913-0.199s0.294-0.328,0.362-0.586
		c0.027-0.103,0.041-0.422,0.041-0.959v-3.826c0-0.85-0.111-1.467-0.332-1.852c-0.221-0.384-0.594-0.576-1.117-0.576
		c-0.81,0-1.615,0.442-2.418,1.326v4.928c0,0.632,0.038,1.023,0.112,1.173c0.095,0.197,0.226,0.342,0.393,0.434
		c0.167,0.092,0.505,0.138,1.015,0.138v0.367H65.78v-0.367h0.204c0.476,0,0.797-0.121,0.964-0.362s0.25-0.702,0.25-1.382v-3.469
		c0-1.122-0.025-1.806-0.077-2.051c-0.051-0.244-0.129-0.411-0.234-0.5c-0.105-0.088-0.247-0.132-0.423-0.132
		c-0.19,0-0.418,0.051-0.684,0.152l-0.153-0.367l2.815-1.143h0.438v1.979H68.882z"/>
	<path d="M79.827,88.604v7.509c0,0.585,0.042,0.974,0.127,1.168c0.085,0.193,0.211,0.338,0.377,0.434
		c0.167,0.095,0.471,0.143,0.913,0.143v0.367h-4.54v-0.367c0.456,0,0.762-0.044,0.918-0.133c0.157-0.088,0.281-0.234,0.373-0.438
		s0.138-0.595,0.138-1.173v-3.602c0-1.013-0.031-1.669-0.092-1.969c-0.048-0.218-0.123-0.369-0.225-0.454s-0.241-0.127-0.418-0.127
		c-0.19,0-0.422,0.051-0.694,0.152l-0.143-0.367l2.815-1.143H79.827z M78.981,83.719c0.286,0,0.529,0.1,0.729,0.301
		c0.2,0.2,0.301,0.443,0.301,0.729c0,0.285-0.101,0.53-0.301,0.734c-0.201,0.204-0.444,0.306-0.729,0.306s-0.53-0.102-0.734-0.306
		s-0.306-0.449-0.306-0.734c0-0.286,0.1-0.529,0.301-0.729C78.442,83.818,78.688,83.719,78.981,83.719z"/>
	<path d="M86.979,88.604c1.415,0,2.55,0.538,3.407,1.612c0.728,0.918,1.091,1.972,1.091,3.162c0,0.837-0.201,1.684-0.602,2.54
		c-0.401,0.857-0.954,1.503-1.658,1.938c-0.704,0.436-1.488,0.652-2.352,0.652c-1.408,0-2.526-0.561-3.356-1.683
		c-0.7-0.945-1.05-2.006-1.05-3.183c0-0.857,0.212-1.709,0.637-2.556s0.984-1.473,1.678-1.877S86.203,88.604,86.979,88.604z
		 M86.662,89.268c-0.36,0-0.723,0.107-1.086,0.321c-0.364,0.215-0.658,0.591-0.882,1.128s-0.336,1.228-0.336,2.07
		c0,1.36,0.27,2.533,0.811,3.52c0.541,0.986,1.253,1.479,2.137,1.479c0.66,0,1.204-0.272,1.632-0.816
		c0.429-0.544,0.643-1.479,0.643-2.806c0-1.659-0.357-2.965-1.071-3.917C88.026,89.595,87.41,89.268,86.662,89.268z"/>
	<path d="M95.578,90.584c1.095-1.319,2.139-1.979,3.132-1.979c0.51,0,0.949,0.128,1.316,0.383c0.368,0.255,0.66,0.675,0.877,1.26
		c0.149,0.408,0.225,1.034,0.225,1.877v3.989c0,0.592,0.047,0.993,0.143,1.203c0.075,0.17,0.195,0.303,0.362,0.398
		s0.474,0.143,0.923,0.143v0.367h-4.622v-0.367h0.194c0.436,0,0.74-0.066,0.913-0.199s0.294-0.328,0.362-0.586
		c0.027-0.103,0.041-0.422,0.041-0.959v-3.826c0-0.85-0.111-1.467-0.332-1.852c-0.221-0.384-0.594-0.576-1.117-0.576
		c-0.81,0-1.615,0.442-2.418,1.326v4.928c0,0.632,0.038,1.023,0.112,1.173c0.095,0.197,0.226,0.342,0.393,0.434
		c0.167,0.092,0.505,0.138,1.015,0.138v0.367h-4.621v-0.367h0.204c0.476,0,0.797-0.121,0.964-0.362s0.25-0.702,0.25-1.382v-3.469
		c0-1.122-0.025-1.806-0.077-2.051c-0.051-0.244-0.129-0.411-0.234-0.5c-0.105-0.088-0.247-0.132-0.423-0.132
		c-0.19,0-0.418,0.051-0.684,0.152l-0.153-0.367l2.815-1.143h0.438v1.979H95.578z"/>
	<path d="M112.166,90.809h6.427v-3.958c0-0.708-0.045-1.174-0.133-1.398c-0.068-0.17-0.211-0.315-0.43-0.438
		c-0.291-0.163-0.602-0.244-0.928-0.244h-0.49v-0.378h5.918v0.378h-0.49c-0.326,0-0.637,0.078-0.928,0.234
		c-0.219,0.108-0.365,0.273-0.443,0.494c-0.078,0.222-0.117,0.672-0.117,1.353v8.926c0,0.7,0.043,1.163,0.131,1.388
		c0.068,0.17,0.209,0.315,0.42,0.438c0.299,0.163,0.611,0.244,0.938,0.244h0.49v0.378h-5.918v-0.378h0.49
		c0.564,0,0.977-0.166,1.234-0.499c0.17-0.218,0.256-0.741,0.256-1.571v-4.213h-6.427v4.213c0,0.7,0.044,1.163,0.132,1.388
		c0.068,0.17,0.211,0.315,0.429,0.438c0.292,0.163,0.602,0.244,0.929,0.244h0.5v0.378h-5.928v-0.378h0.49
		c0.571,0,0.986-0.166,1.245-0.499c0.163-0.218,0.245-0.741,0.245-1.571v-8.926c0-0.708-0.044-1.174-0.132-1.398
		c-0.068-0.17-0.208-0.315-0.418-0.438c-0.299-0.163-0.612-0.244-0.938-0.244h-0.49v-0.378h5.928v0.378h-0.5
		c-0.327,0-0.637,0.078-0.929,0.234c-0.211,0.108-0.357,0.273-0.439,0.494c-0.082,0.222-0.122,0.672-0.122,1.353v3.956H112.166z"/>
	<path d="M126.835,88.604v7.509c0,0.585,0.042,0.974,0.127,1.168c0.085,0.193,0.211,0.338,0.378,0.434
		c0.166,0.095,0.471,0.143,0.913,0.143v0.367h-4.54v-0.367c0.456,0,0.762-0.044,0.918-0.133c0.156-0.088,0.28-0.234,0.372-0.438
		s0.138-0.595,0.138-1.173v-3.602c0-1.013-0.03-1.669-0.092-1.969c-0.047-0.218-0.122-0.369-0.224-0.454
		c-0.103-0.085-0.242-0.127-0.419-0.127c-0.19,0-0.422,0.051-0.693,0.152l-0.143-0.367l2.815-1.143H126.835z M125.989,83.719
		c0.285,0,0.528,0.1,0.729,0.301c0.201,0.2,0.302,0.443,0.302,0.729c0,0.285-0.101,0.53-0.302,0.734
		c-0.2,0.204-0.443,0.306-0.729,0.306c-0.286,0-0.531-0.102-0.735-0.306s-0.306-0.449-0.306-0.734c0-0.286,0.101-0.529,0.301-0.729
		C125.449,83.818,125.696,83.719,125.989,83.719z"/>
	<path d="M132.629,83.719v12.395c0,0.585,0.043,0.973,0.128,1.163s0.216,0.335,0.393,0.433c0.177,0.1,0.507,0.148,0.989,0.148v0.367
		h-4.58v-0.367c0.429,0,0.721-0.044,0.877-0.133c0.156-0.088,0.279-0.234,0.367-0.438c0.089-0.204,0.133-0.595,0.133-1.173v-8.488
		c0-1.054-0.023-1.701-0.071-1.943c-0.048-0.241-0.124-0.406-0.229-0.494c-0.105-0.089-0.24-0.133-0.403-0.133
		c-0.177,0-0.401,0.055-0.673,0.163l-0.174-0.356l2.785-1.143L132.629,83.719L132.629,83.719z"/>
	<path d="M138.434,83.719v12.395c0,0.585,0.043,0.973,0.128,1.163s0.216,0.335,0.393,0.433c0.177,0.1,0.507,0.148,0.989,0.148v0.367
		h-4.58v-0.367c0.429,0,0.721-0.044,0.877-0.133c0.156-0.088,0.279-0.234,0.367-0.438c0.089-0.204,0.133-0.595,0.133-1.173v-8.488
		c0-1.054-0.023-1.701-0.071-1.943c-0.048-0.241-0.124-0.406-0.229-0.494c-0.105-0.089-0.24-0.133-0.403-0.133
		c-0.177,0-0.401,0.055-0.673,0.163l-0.174-0.356l2.785-1.143L138.434,83.719L138.434,83.719z"/>
	<path d="M147.065,88.604v3.183h-0.337c-0.259-0.999-0.59-1.68-0.995-2.04c-0.404-0.36-0.92-0.54-1.545-0.54
		c-0.477,0-0.86,0.126-1.153,0.377c-0.292,0.252-0.438,0.53-0.438,0.837c0,0.381,0.109,0.707,0.327,0.979
		c0.21,0.278,0.639,0.574,1.285,0.887l1.489,0.725c1.381,0.673,2.07,1.561,2.07,2.662c0,0.851-0.321,1.536-0.964,2.056
		c-0.643,0.521-1.361,0.78-2.157,0.78c-0.571,0-1.225-0.102-1.959-0.306c-0.225-0.067-0.408-0.102-0.551-0.102
		c-0.156,0-0.278,0.088-0.367,0.265h-0.337v-3.336h0.337c0.19,0.952,0.555,1.67,1.092,2.152c0.537,0.483,1.139,0.725,1.806,0.725
		c0.469,0,0.852-0.138,1.147-0.413s0.443-0.606,0.443-0.994c0-0.47-0.165-0.864-0.494-1.184c-0.33-0.319-0.988-0.725-1.975-1.214
		c-0.985-0.49-1.632-0.932-1.938-1.326c-0.307-0.388-0.459-0.878-0.459-1.469c0-0.769,0.263-1.411,0.79-1.929
		c0.527-0.517,1.209-0.775,2.046-0.775c0.367,0,0.813,0.078,1.336,0.235c0.347,0.102,0.578,0.152,0.693,0.152
		c0.109,0,0.194-0.023,0.256-0.071c0.061-0.048,0.132-0.153,0.214-0.316C146.727,88.604,147.065,88.604,147.065,88.604z"/>
	<path d="M158,85.146v5.438h2.52c0.578,0,1.001-0.128,1.271-0.383c0.269-0.255,0.447-0.76,0.535-1.515h0.378v4.683h-0.378
		c-0.007-0.537-0.076-0.932-0.209-1.184s-0.316-0.44-0.551-0.566s-0.583-0.188-1.046-0.188H158v4.346c0,0.7,0.044,1.163,0.133,1.388
		c0.067,0.17,0.211,0.315,0.428,0.438c0.3,0.163,0.612,0.244,0.939,0.244h0.499v0.378h-5.937v-0.378h0.489
		c0.571,0,0.986-0.166,1.245-0.499c0.163-0.218,0.244-0.741,0.244-1.571V86.84c0-0.7-0.044-1.163-0.133-1.388
		c-0.067-0.17-0.207-0.315-0.418-0.438c-0.292-0.163-0.605-0.244-0.938-0.244h-0.489v-0.378h10.293l0.133,3.04h-0.357
		c-0.177-0.646-0.383-1.12-0.617-1.423s-0.523-0.522-0.867-0.658s-0.876-0.204-1.597-0.204L158,85.146L158,85.146z"/>
	<path d="M171.292,96.878c-0.959,0.741-1.561,1.17-1.806,1.285c-0.367,0.17-0.758,0.255-1.173,0.255
		c-0.646,0-1.179-0.221-1.597-0.663c-0.418-0.441-0.627-1.023-0.627-1.744c0-0.455,0.102-0.85,0.306-1.184
		c0.278-0.462,0.764-0.897,1.454-1.306c0.689-0.408,1.837-0.904,3.442-1.489v-0.367c0-0.932-0.147-1.571-0.443-1.918
		s-0.727-0.52-1.291-0.52c-0.428,0-0.769,0.115-1.02,0.347c-0.259,0.231-0.388,0.496-0.388,0.795l0.021,0.592
		c0,0.313-0.08,0.555-0.24,0.725s-0.369,0.255-0.627,0.255c-0.252,0-0.458-0.088-0.617-0.265c-0.16-0.177-0.24-0.419-0.24-0.725
		c0-0.585,0.3-1.122,0.897-1.612c0.599-0.489,1.438-0.734,2.521-0.734c0.829,0,1.51,0.14,2.04,0.419
		c0.401,0.211,0.697,0.54,0.888,0.989c0.122,0.292,0.184,0.891,0.184,1.795v3.173c0,0.892,0.017,1.437,0.051,1.638
		c0.034,0.2,0.09,0.335,0.168,0.402c0.078,0.068,0.169,0.103,0.271,0.103c0.108,0,0.204-0.024,0.286-0.071
		c0.143-0.089,0.418-0.337,0.826-0.745v0.571c-0.762,1.021-1.489,1.53-2.184,1.53c-0.333,0-0.599-0.115-0.796-0.347
		S171.299,97.436,171.292,96.878z M171.292,96.215v-3.561c-1.027,0.408-1.69,0.697-1.989,0.867c-0.537,0.3-0.922,0.612-1.152,0.938
		c-0.231,0.327-0.347,0.684-0.347,1.071c0,0.49,0.146,0.896,0.438,1.22c0.292,0.322,0.629,0.484,1.01,0.484
		C169.769,97.235,170.449,96.896,171.292,96.215z"/>
	<path d="M178.046,90.594c0.68-0.68,1.081-1.071,1.204-1.173c0.306-0.259,0.636-0.459,0.989-0.602
		c0.354-0.144,0.704-0.215,1.051-0.215c0.585,0,1.088,0.17,1.51,0.511c0.422,0.34,0.704,0.833,0.847,1.479
		c0.7-0.815,1.292-1.352,1.774-1.606c0.483-0.255,0.979-0.383,1.49-0.383c0.496,0,0.937,0.128,1.32,0.383
		c0.385,0.255,0.688,0.672,0.913,1.25c0.149,0.395,0.225,1.013,0.225,1.856v4.02c0,0.585,0.044,0.985,0.133,1.203
		c0.067,0.15,0.193,0.277,0.377,0.383s0.483,0.158,0.898,0.158v0.367h-4.611v-0.367h0.194c0.4,0,0.714-0.078,0.938-0.234
		c0.156-0.109,0.269-0.282,0.336-0.521c0.027-0.115,0.041-0.445,0.041-0.989v-4.02c0-0.762-0.092-1.299-0.275-1.612
		c-0.266-0.435-0.69-0.652-1.275-0.652c-0.36,0-0.723,0.09-1.086,0.271c-0.364,0.18-0.805,0.515-1.321,1.005l-0.021,0.112
		l0.021,0.438v4.458c0,0.639,0.036,1.037,0.107,1.193s0.205,0.287,0.402,0.393s0.534,0.158,1.01,0.158v0.367h-4.723v-0.367
		c0.517,0,0.872-0.062,1.065-0.184c0.194-0.122,0.328-0.306,0.403-0.551c0.034-0.116,0.051-0.452,0.051-1.01v-4.02
		c0-0.762-0.112-1.31-0.336-1.643c-0.3-0.436-0.718-0.653-1.255-0.653c-0.367,0-0.731,0.1-1.092,0.296
		c-0.564,0.3-1,0.637-1.306,1.011v5.009c0,0.611,0.042,1.01,0.127,1.193s0.211,0.321,0.378,0.413s0.505,0.138,1.015,0.138v0.367
		h-4.621v-0.367c0.429,0,0.728-0.046,0.898-0.138s0.299-0.238,0.387-0.438c0.089-0.201,0.133-0.59,0.133-1.168v-3.571
		c0-1.026-0.03-1.689-0.092-1.988c-0.048-0.225-0.122-0.38-0.225-0.465c-0.102-0.085-0.241-0.127-0.418-0.127
		c-0.19,0-0.418,0.051-0.684,0.152l-0.152-0.367l2.815-1.143h0.438v1.99H178.046z"/>
	<path d="M194.745,88.604v7.509c0,0.585,0.042,0.974,0.127,1.168c0.085,0.193,0.211,0.338,0.378,0.434
		c0.166,0.095,0.471,0.143,0.913,0.143v0.367h-4.54v-0.367c0.456,0,0.762-0.044,0.918-0.133c0.156-0.088,0.28-0.234,0.372-0.438
		s0.138-0.595,0.138-1.173v-3.602c0-1.013-0.03-1.669-0.092-1.969c-0.047-0.218-0.122-0.369-0.224-0.454
		c-0.103-0.085-0.242-0.127-0.419-0.127c-0.19,0-0.422,0.051-0.693,0.152l-0.143-0.367l2.815-1.143H194.745z M193.899,83.719
		c0.285,0,0.528,0.1,0.729,0.301c0.201,0.2,0.302,0.443,0.302,0.729c0,0.285-0.101,0.53-0.302,0.734
		c-0.2,0.204-0.443,0.306-0.729,0.306c-0.286,0-0.531-0.102-0.735-0.306s-0.306-0.449-0.306-0.734c0-0.286,0.101-0.529,0.301-0.729
		C193.359,83.818,193.606,83.719,193.899,83.719z"/>
	<path d="M200.539,83.719v12.395c0,0.585,0.043,0.973,0.128,1.163s0.216,0.335,0.393,0.433c0.177,0.1,0.507,0.148,0.989,0.148v0.367
		h-4.58v-0.367c0.429,0,0.721-0.044,0.877-0.133c0.156-0.088,0.279-0.234,0.367-0.438c0.089-0.204,0.133-0.595,0.133-1.173v-8.488
		c0-1.054-0.023-1.701-0.071-1.943c-0.048-0.241-0.124-0.406-0.229-0.494c-0.105-0.089-0.24-0.133-0.403-0.133
		c-0.177,0-0.401,0.055-0.673,0.163l-0.174-0.356l2.785-1.143L200.539,83.719L200.539,83.719z"/>
	<path d="M202.6,88.88h4.356v0.378h-0.215c-0.306,0-0.535,0.066-0.688,0.199c-0.152,0.132-0.229,0.297-0.229,0.494
		c0,0.266,0.112,0.633,0.337,1.102l2.275,4.713l2.091-5.161c0.115-0.279,0.174-0.555,0.174-0.826c0-0.123-0.024-0.215-0.072-0.275
		c-0.054-0.075-0.139-0.135-0.255-0.179c-0.115-0.044-0.319-0.066-0.611-0.066V88.88h3.039v0.378
		c-0.251,0.027-0.445,0.081-0.581,0.163s-0.285,0.234-0.449,0.459c-0.061,0.096-0.177,0.357-0.347,0.785l-3.805,9.324
		c-0.367,0.904-0.849,1.588-1.443,2.051c-0.596,0.462-1.168,0.693-1.719,0.693c-0.401,0-0.731-0.115-0.99-0.347
		c-0.258-0.231-0.388-0.496-0.388-0.796c0-0.285,0.094-0.515,0.281-0.688c0.187-0.173,0.443-0.26,0.77-0.26
		c0.225,0,0.53,0.074,0.918,0.225c0.272,0.102,0.442,0.152,0.511,0.152c0.204,0,0.427-0.105,0.668-0.316s0.484-0.618,0.729-1.224
		l0.663-1.622l-3.356-7.049c-0.102-0.211-0.266-0.473-0.489-0.786c-0.17-0.237-0.31-0.397-0.419-0.479
		c-0.156-0.108-0.407-0.204-0.755-0.285V88.88H202.6z"/>
</g>
<g>
	<path d="M50.788,120.256v-0.508h0.618c0.54,0,0.954-0.085,1.243-0.254c0.288-0.17,0.501-0.4,0.639-0.693
		c0.082-0.192,0.124-0.77,0.124-1.73v-12.249c0-0.952-0.051-1.547-0.151-1.785s-0.304-0.446-0.611-0.625
		c-0.307-0.178-0.721-0.268-1.243-0.268h-0.618v-0.508h8.335c2.225,0,4.014,0.302,5.369,0.906c1.657,0.741,2.913,1.863,3.769,3.364
		s1.284,3.199,1.284,5.095c0,1.309-0.211,2.515-0.632,3.618s-0.966,2.014-1.634,2.732c-0.668,0.719-1.44,1.296-2.314,1.73
		c-0.875,0.435-1.943,0.771-3.207,1.009c-0.559,0.11-1.437,0.165-2.636,0.165L50.788,120.256L50.788,120.256z M57.888,102.693
		v14.527c0,0.77,0.036,1.241,0.11,1.415c0.073,0.174,0.197,0.307,0.371,0.398c0.247,0.137,0.604,0.205,1.071,0.205
		c1.528,0,2.696-0.521,3.501-1.565c1.099-1.409,1.648-3.598,1.648-6.563c0-2.389-0.375-4.298-1.126-5.726
		c-0.595-1.117-1.359-1.877-2.293-2.28C60.511,102.821,59.417,102.684,57.888,102.693z"/>
	<path d="M78.389,102.707v7.58h0.371c1.181,0,2.037-0.371,2.568-1.112c0.531-0.742,0.87-1.836,1.016-3.282h0.521v9.749h-0.521
		c-0.11-1.062-0.341-1.931-0.693-2.608c-0.353-0.678-0.762-1.133-1.229-1.366c-0.467-0.233-1.145-0.351-2.033-0.351v5.246
		c0,1.024,0.043,1.652,0.131,1.881c0.087,0.229,0.249,0.417,0.487,0.563s0.623,0.22,1.153,0.22h1.112
		c1.739,0,3.133-0.402,4.181-1.208s1.801-2.032,2.259-3.68h0.508l-0.837,5.918H71.29v-0.508h0.618c0.54,0,0.975-0.097,1.304-0.289
		c0.238-0.128,0.421-0.348,0.549-0.658c0.101-0.22,0.151-0.797,0.151-1.73v-12.249c0-0.842-0.023-1.359-0.068-1.552
		c-0.092-0.32-0.261-0.567-0.508-0.741c-0.348-0.256-0.824-0.385-1.428-0.385H71.29v-0.508h15.585v5.506h-0.521
		c-0.266-1.346-0.639-2.311-1.119-2.896c-0.481-0.586-1.161-1.017-2.04-1.291c-0.513-0.165-1.474-0.247-2.883-0.247h-1.923V102.707z
		"/>
	<path d="M96.488,101.636l9.187,11.548v-8.005c0-1.117-0.161-1.872-0.481-2.266c-0.439-0.531-1.176-0.788-2.211-0.77v-0.508h6.152
		v0.508c-0.787,0.101-1.316,0.231-1.586,0.392s-0.48,0.421-0.631,0.782c-0.151,0.362-0.227,0.982-0.227,1.861v15.503h-0.467
		l-12.592-15.503v11.837c0,1.07,0.245,1.794,0.735,2.169c0.489,0.376,1.05,0.563,1.682,0.563h0.439v0.508h-6.605v-0.508
		c1.025-0.009,1.739-0.22,2.142-0.632c0.402-0.412,0.604-1.112,0.604-2.101v-13.142l-0.398-0.494
		c-0.394-0.495-0.742-0.819-1.044-0.976c-0.302-0.155-0.737-0.242-1.304-0.261v-0.508h6.605V101.636z"/>
	<path d="M127.534,101.636v5.039h-0.494c-0.293-1.162-0.617-1.998-0.975-2.506s-0.848-0.913-1.469-1.215
		c-0.348-0.165-0.957-0.247-1.826-0.247h-1.387v14.363c0,0.952,0.053,1.547,0.156,1.785c0.105,0.238,0.313,0.446,0.619,0.625
		c0.307,0.178,0.725,0.268,1.256,0.268h0.619v0.508h-9.75v-0.508h0.617c0.541,0,0.975-0.097,1.305-0.289
		c0.238-0.128,0.426-0.348,0.563-0.658c0.102-0.22,0.152-0.797,0.152-1.73v-14.363h-1.346c-1.256,0-2.166,0.266-2.733,0.796
		c-0.796,0.742-1.3,1.799-1.51,3.172h-0.522v-5.039L127.534,101.636L127.534,101.636z"/>
	<path d="M138.85,119.748v0.508h-9.735v-0.508h0.617c0.54,0,0.976-0.097,1.305-0.289c0.238-0.128,0.421-0.348,0.55-0.658
		c0.101-0.22,0.15-0.797,0.15-1.73v-12.249c0-0.952-0.05-1.547-0.15-1.785c-0.102-0.238-0.305-0.446-0.611-0.625
		c-0.307-0.178-0.721-0.268-1.243-0.268h-0.617v-0.508h9.735v0.508h-0.618c-0.54,0-0.975,0.097-1.305,0.288
		c-0.237,0.129-0.426,0.349-0.563,0.659c-0.101,0.22-0.151,0.797-0.151,1.73v12.249c0,0.952,0.053,1.547,0.158,1.785
		s0.311,0.446,0.618,0.625c0.307,0.178,0.721,0.268,1.242,0.268H138.85z"/>
	<path d="M152.705,101.21l0.151,6.207h-0.563c-0.266-1.557-0.918-2.809-1.957-3.756s-2.162-1.421-3.371-1.421
		c-0.934,0-1.673,0.249-2.218,0.748c-0.544,0.499-0.816,1.073-0.816,1.724c0,0.411,0.096,0.777,0.288,1.099
		c0.266,0.43,0.691,0.855,1.277,1.276c0.43,0.303,1.423,0.838,2.979,1.606c2.179,1.071,3.648,2.083,4.408,3.035
		c0.75,0.952,1.126,2.041,1.126,3.269c0,1.556-0.606,2.895-1.819,4.016c-1.214,1.122-2.754,1.683-4.621,1.683
		c-0.586,0-1.14-0.06-1.661-0.179c-0.522-0.119-1.177-0.343-1.964-0.673c-0.439-0.183-0.802-0.274-1.085-0.274
		c-0.238,0-0.49,0.092-0.755,0.274c-0.266,0.184-0.48,0.462-0.646,0.838h-0.509v-7.03h0.509c0.402,1.977,1.179,3.485,2.327,4.524
		s2.387,1.559,3.715,1.559c1.024,0,1.842-0.279,2.451-0.838c0.608-0.559,0.913-1.208,0.913-1.95c0-0.439-0.117-0.865-0.351-1.276
		c-0.233-0.412-0.588-0.804-1.064-1.175c-0.476-0.37-1.317-0.854-2.526-1.448c-1.693-0.833-2.911-1.543-3.652-2.129
		c-0.741-0.585-1.312-1.24-1.71-1.963c-0.398-0.724-0.597-1.52-0.597-2.39c0-1.483,0.544-2.746,1.634-3.79
		c1.089-1.044,2.462-1.565,4.119-1.565c0.604,0,1.19,0.073,1.758,0.22c0.431,0.109,0.954,0.313,1.572,0.611
		c0.618,0.297,1.051,0.446,1.298,0.446c0.238,0,0.426-0.073,0.563-0.22c0.138-0.146,0.266-0.499,0.385-1.058L152.705,101.21
		L152.705,101.21z"/>
	<path d="M172.877,101.636v5.039h-0.494c-0.293-1.162-0.618-1.998-0.975-2.506c-0.357-0.508-0.848-0.913-1.47-1.215
		c-0.348-0.165-0.957-0.247-1.826-0.247h-1.387v14.363c0,0.952,0.053,1.547,0.157,1.785c0.105,0.238,0.312,0.446,0.618,0.625
		c0.307,0.178,0.726,0.268,1.257,0.268h0.618v0.508h-9.75v-0.508h0.618c0.54,0,0.975-0.097,1.305-0.289
		c0.237-0.128,0.426-0.348,0.563-0.658c0.101-0.22,0.151-0.797,0.151-1.73v-14.363h-1.346c-1.255,0-2.165,0.266-2.732,0.796
		c-0.797,0.742-1.301,1.799-1.511,3.172h-0.521v-5.039L172.877,101.636L172.877,101.636z"/>
	<path d="M181.364,111.77v5.218c0,1.008,0.063,1.642,0.186,1.902c0.124,0.261,0.341,0.469,0.652,0.625
		c0.312,0.155,0.893,0.233,1.744,0.233v0.508h-9.53v-0.508c0.86,0,1.444-0.08,1.751-0.24s0.521-0.369,0.646-0.625
		s0.186-0.888,0.186-1.896v-12.084c0-1.007-0.062-1.641-0.186-1.901s-0.341-0.469-0.652-0.625c-0.312-0.155-0.893-0.233-1.744-0.233
		v-0.508h8.651c2.252,0,3.899,0.155,4.943,0.467s1.895,0.886,2.554,1.724c0.659,0.837,0.989,1.819,0.989,2.945
		c0,1.373-0.494,2.508-1.483,3.405c-0.632,0.567-1.515,0.993-2.65,1.277l4.477,6.303c0.586,0.814,1.003,1.323,1.25,1.524
		c0.375,0.283,0.811,0.439,1.305,0.467v0.508h-5.863l-6.001-8.486C182.589,111.77,181.364,111.77,181.364,111.77z M181.364,102.638
		v8.157h0.783c1.272,0,2.225-0.117,2.856-0.351c0.631-0.233,1.128-0.654,1.489-1.263s0.543-1.403,0.543-2.383
		c0-1.419-0.332-2.467-0.996-3.145s-1.732-1.017-3.206-1.017h-1.469V102.638z"/>
	<path d="M213.207,101.636v0.508c-0.613,0.083-1.085,0.261-1.414,0.536c-0.458,0.384-1.181,1.433-2.17,3.145l-4.037,6.742v4.504
		c0,0.961,0.051,1.559,0.151,1.792s0.3,0.439,0.598,0.618c0.297,0.178,0.693,0.268,1.188,0.268h1.044v0.508h-10.45v-0.508h0.975
		c0.55,0,0.984-0.097,1.305-0.289c0.238-0.128,0.426-0.348,0.563-0.658c0.101-0.22,0.15-0.797,0.15-1.73v-3.735l-4.38-7.979
		c-0.87-1.574-1.483-2.501-1.841-2.78c-0.356-0.279-0.833-0.423-1.428-0.433v-0.508h8.926v0.508h-0.398
		c-0.54,0-0.918,0.078-1.133,0.233c-0.215,0.156-0.322,0.32-0.322,0.494c0,0.33,0.365,1.158,1.099,2.485l3.364,6.166l3.351-5.616
		c0.832-1.373,1.249-2.284,1.249-2.732c0-0.247-0.119-0.453-0.356-0.618c-0.312-0.229-0.884-0.366-1.717-0.412v-0.508
		L213.207,101.636L213.207,101.636z"/>
</g>
</svg>
